<svg width="716" height="750" viewBox="0 0 716 750" fill="none" xmlns="http://www.w3.org/2000/svg">
<path d="M307.85 285.78V458.93L249.709 503.463L226.003 568.98L255.369 669.877L314.321 713.686L384.971 721.647L450.887 682.54C450.887 682.54 485.966 622.326 486.99 617.922C488.014 613.517 484.542 538.421 483.004 534.305C481.466 530.189 465.444 488.199 465.444 488.199L414.534 450.735L414.623 290.344" fill="#5FCEFF"/>
<path d="M302.676 227.243H414.621V276.295H302.676V227.243Z" fill="#FFB578"/>
<path d="M307.85 171.048H408.44V220.099H307.85V171.048Z" fill="#FF4893"/>
<path d="M358.637 738.026C276.869 738.026 210.345 668.343 210.345 582.692C210.345 526.131 240.126 473.862 287.017 446.703V86.2742C287.017 44.8956 319.145 11.2297 358.637 11.2297C398.129 11.2297 430.257 44.8932 430.257 86.2742V446.701C477.146 473.853 506.929 526.124 506.929 582.692C506.929 668.343 440.406 738.026 358.637 738.026ZM358.637 44.0105C336.402 44.0105 318.312 62.9695 318.312 86.2742V456.744C318.311 459.864 317.461 462.919 315.861 465.551C314.26 468.183 311.976 470.281 309.276 471.6C268.189 491.662 241.64 535.267 241.64 582.692C241.64 650.267 294.125 705.245 358.637 705.245C423.149 705.245 475.634 650.269 475.634 582.692C475.634 535.258 449.088 491.65 408.002 471.6C405.301 470.283 403.015 468.185 401.414 465.553C399.812 462.921 398.962 459.865 398.963 456.744V86.2742C398.963 62.9695 380.872 44.0105 358.637 44.0105Z" fill="#152C70"/>
<path d="M358.637 683.914C306.759 683.914 264.552 639.693 264.552 585.338C264.552 547.211 285.89 512.143 318.915 496.003C322.676 494.165 326.98 493.967 330.881 495.453C334.781 496.939 337.958 499.987 339.713 503.927C341.467 507.866 341.656 512.375 340.238 516.46C338.819 520.546 335.909 523.874 332.148 525.712C310.094 536.49 295.846 559.895 295.846 585.34C295.846 621.619 324.014 651.136 358.637 651.136C393.26 651.136 421.428 621.621 421.428 585.34C421.428 580.993 423.076 576.824 426.011 573.75C428.945 570.677 432.925 568.95 437.075 568.95C441.225 568.95 445.205 570.677 448.139 573.75C451.074 576.824 452.722 580.993 452.722 585.34C452.722 639.693 410.515 683.914 358.637 683.914ZM358.637 131.231H302.664C298.514 131.231 294.534 129.504 291.6 126.43C288.665 123.356 287.017 119.187 287.017 114.84C287.017 110.493 288.665 106.324 291.6 103.251C294.534 100.177 298.514 98.4499 302.664 98.4499H358.637C362.787 98.4499 366.767 100.177 369.701 103.251C372.636 106.324 374.284 110.493 374.284 114.84C374.284 119.187 372.636 123.356 369.701 126.43C366.767 129.504 362.787 131.231 358.637 131.231ZM414.52 187.426H302.664C298.514 187.426 294.534 185.699 291.6 182.626C288.665 179.552 287.017 175.383 287.017 171.036C287.017 166.689 288.665 162.52 291.6 159.446C294.534 156.372 298.514 154.645 302.664 154.645H414.52C418.67 154.645 422.65 156.372 425.585 159.446C428.519 162.52 430.168 166.689 430.168 171.036C430.168 175.383 428.519 179.552 425.585 182.626C422.65 185.699 418.67 187.426 414.52 187.426ZM414.52 243.622H302.664C298.514 243.622 294.534 241.895 291.6 238.821C288.665 235.747 287.017 231.578 287.017 227.231C287.017 222.884 288.665 218.715 291.6 215.642C294.534 212.568 298.514 210.841 302.664 210.841H414.52C418.67 210.841 422.65 212.568 425.585 215.642C428.519 218.715 430.168 222.884 430.168 227.231C430.168 231.578 428.519 235.747 425.585 238.821C422.65 241.895 418.67 243.622 414.52 243.622ZM414.52 299.817H302.664C298.514 299.817 294.534 298.091 291.6 295.017C288.665 291.943 287.017 287.774 287.017 283.427C287.017 279.08 288.665 274.911 291.6 271.837C294.534 268.763 298.514 267.037 302.664 267.037H414.52C418.67 267.037 422.65 268.763 425.585 271.837C428.519 274.911 430.168 279.08 430.168 283.427C430.168 287.774 428.519 291.943 425.585 295.017C422.65 298.091 418.67 299.817 414.52 299.817Z" fill="#152C70"/>
</svg>
